<mxfile host="app.diagrams.net" modified="2022-09-07T22:06:12.271Z" agent="5.0 (Macintosh; Intel Mac OS X 10_15_7) AppleWebKit/605.1.15 (KHTML, like Gecko) Version/15.4 Safari/605.1.15" etag="AojTT58ZwqxnKM1-T7gv" version="20.3.0" type="github">
  <diagram id="bcMcZX83-e7nP741SMPi" name="Page-1">
    <mxGraphModel dx="1377" dy="2803" grid="1" gridSize="10" guides="1" tooltips="1" connect="1" arrows="1" fold="1" page="1" pageScale="1" pageWidth="827" pageHeight="1169" math="0" shadow="0">
      <root>
        <mxCell id="0" />
        <mxCell id="1" parent="0" />
        <mxCell id="HI5hFGE2aybFtyvMWJXW-1" value="" style="endArrow=none;html=1;rounded=0;" edge="1" parent="1">
          <mxGeometry width="50" height="50" relative="1" as="geometry">
            <mxPoint x="80" y="1480" as="sourcePoint" />
            <mxPoint x="80" y="40" as="targetPoint" />
          </mxGeometry>
        </mxCell>
        <mxCell id="HI5hFGE2aybFtyvMWJXW-2" value="" style="endArrow=none;html=1;rounded=0;" edge="1" parent="1">
          <mxGeometry width="50" height="50" relative="1" as="geometry">
            <mxPoint x="80" y="1480.0033333333336" as="sourcePoint" />
            <mxPoint x="1080" y="1480" as="targetPoint" />
          </mxGeometry>
        </mxCell>
        <mxCell id="HI5hFGE2aybFtyvMWJXW-3" value="" style="endArrow=none;html=1;rounded=0;" edge="1" parent="1">
          <mxGeometry width="50" height="50" relative="1" as="geometry">
            <mxPoint x="1080" y="1482" as="sourcePoint" />
            <mxPoint x="1080" y="40" as="targetPoint" />
          </mxGeometry>
        </mxCell>
        <mxCell id="HI5hFGE2aybFtyvMWJXW-4" value="" style="endArrow=none;html=1;rounded=0;" edge="1" parent="1">
          <mxGeometry width="50" height="50" relative="1" as="geometry">
            <mxPoint x="80" y="40.00333333333356" as="sourcePoint" />
            <mxPoint x="1080" y="40" as="targetPoint" />
          </mxGeometry>
        </mxCell>
        <mxCell id="HI5hFGE2aybFtyvMWJXW-5" value="Web Transport Booking Experience API" style="whiteSpace=wrap;html=1;aspect=fixed;fillColor=#fa6800;fontColor=#000000;strokeColor=#C73500;" vertex="1" parent="1">
          <mxGeometry x="120" y="80" width="120" height="120" as="geometry" />
        </mxCell>
        <mxCell id="HI5hFGE2aybFtyvMWJXW-6" value="Get Routes and Schedules Process API" style="whiteSpace=wrap;html=1;aspect=fixed;fillColor=#1ba1e2;fontColor=#ffffff;strokeColor=#006EAF;" vertex="1" parent="1">
          <mxGeometry x="280" y="80" width="120" height="120" as="geometry" />
        </mxCell>
        <mxCell id="HI5hFGE2aybFtyvMWJXW-7" value="&quot;Travel Tip&quot; Booking System" style="whiteSpace=wrap;html=1;aspect=fixed;fillColor=#ffff88;strokeColor=#36393d;" vertex="1" parent="1">
          <mxGeometry x="760" y="80" width="120" height="120" as="geometry" />
        </mxCell>
        <mxCell id="HI5hFGE2aybFtyvMWJXW-8" value="&lt;span&gt;&quot;Fast Go&quot; Booking System&lt;/span&gt;" style="whiteSpace=wrap;html=1;aspect=fixed;fillColor=#ffcc99;strokeColor=#36393d;" vertex="1" parent="1">
          <mxGeometry x="920" y="80" width="120" height="120" as="geometry" />
        </mxCell>
        <mxCell id="HI5hFGE2aybFtyvMWJXW-9" value="&lt;span&gt;&quot;Fast Go&quot; Routes and Schedules System API&amp;nbsp;&lt;/span&gt;" style="whiteSpace=wrap;html=1;aspect=fixed;fillColor=#d5e8d4;strokeColor=#82b366;" vertex="1" parent="1">
          <mxGeometry x="600" y="80" width="120" height="120" as="geometry" />
        </mxCell>
        <mxCell id="HI5hFGE2aybFtyvMWJXW-10" value="&quot;Travel Tip&quot; Routes and Schedules System API&amp;nbsp;" style="whiteSpace=wrap;html=1;aspect=fixed;fillColor=#f8cecc;strokeColor=#b85450;" vertex="1" parent="1">
          <mxGeometry x="440" y="80" width="120" height="120" as="geometry" />
        </mxCell>
        <mxCell id="HI5hFGE2aybFtyvMWJXW-11" value="" style="endArrow=none;dashed=1;html=1;dashPattern=1 3;strokeWidth=2;rounded=0;" edge="1" parent="1">
          <mxGeometry width="50" height="50" relative="1" as="geometry">
            <mxPoint x="179.79" y="1480" as="sourcePoint" />
            <mxPoint x="179.29" y="200" as="targetPoint" />
            <Array as="points">
              <mxPoint x="179.29" y="240" />
            </Array>
          </mxGeometry>
        </mxCell>
        <mxCell id="HI5hFGE2aybFtyvMWJXW-13" value="" style="endArrow=none;dashed=1;html=1;dashPattern=1 3;strokeWidth=2;rounded=0;startArrow=none;" edge="1" parent="1">
          <mxGeometry width="50" height="50" relative="1" as="geometry">
            <mxPoint x="500" y="1480" as="sourcePoint" />
            <mxPoint x="499.5" y="200" as="targetPoint" />
            <Array as="points" />
          </mxGeometry>
        </mxCell>
        <mxCell id="HI5hFGE2aybFtyvMWJXW-14" value="" style="endArrow=none;dashed=1;html=1;dashPattern=1 3;strokeWidth=2;rounded=0;" edge="1" parent="1">
          <mxGeometry width="50" height="50" relative="1" as="geometry">
            <mxPoint x="660" y="1480" as="sourcePoint" />
            <mxPoint x="659.5" y="200" as="targetPoint" />
            <Array as="points">
              <mxPoint x="659.5" y="240" />
            </Array>
          </mxGeometry>
        </mxCell>
        <mxCell id="HI5hFGE2aybFtyvMWJXW-15" value="" style="endArrow=none;dashed=1;html=1;dashPattern=1 3;strokeWidth=2;rounded=0;" edge="1" parent="1">
          <mxGeometry width="50" height="50" relative="1" as="geometry">
            <mxPoint x="820" y="1480" as="sourcePoint" />
            <mxPoint x="819.5" y="200" as="targetPoint" />
            <Array as="points">
              <mxPoint x="819.5" y="240" />
            </Array>
          </mxGeometry>
        </mxCell>
        <mxCell id="HI5hFGE2aybFtyvMWJXW-16" value="" style="endArrow=none;dashed=1;html=1;dashPattern=1 3;strokeWidth=2;rounded=0;" edge="1" parent="1">
          <mxGeometry width="50" height="50" relative="1" as="geometry">
            <mxPoint x="980" y="1480" as="sourcePoint" />
            <mxPoint x="979.5" y="200" as="targetPoint" />
            <Array as="points">
              <mxPoint x="979.5" y="240" />
            </Array>
          </mxGeometry>
        </mxCell>
        <mxCell id="HI5hFGE2aybFtyvMWJXW-17" value="" style="endArrow=classic;html=1;rounded=0;fillColor=#fa6800;strokeColor=#C73500;" edge="1" parent="1">
          <mxGeometry relative="1" as="geometry">
            <mxPoint x="180" y="240" as="sourcePoint" />
            <mxPoint x="330" y="240" as="targetPoint" />
          </mxGeometry>
        </mxCell>
        <mxCell id="HI5hFGE2aybFtyvMWJXW-18" value="" style="endArrow=classic;html=1;rounded=0;fillColor=#f8cecc;strokeColor=#b85450;" edge="1" parent="1">
          <mxGeometry relative="1" as="geometry">
            <mxPoint x="820" y="320" as="sourcePoint" />
            <mxPoint x="500" y="320" as="targetPoint" />
          </mxGeometry>
        </mxCell>
        <mxCell id="HI5hFGE2aybFtyvMWJXW-19" value="" style="endArrow=classic;html=1;rounded=0;fillColor=#f8cecc;strokeColor=#b85450;" edge="1" parent="1">
          <mxGeometry relative="1" as="geometry">
            <mxPoint x="500" y="240" as="sourcePoint" />
            <mxPoint x="820" y="240" as="targetPoint" />
          </mxGeometry>
        </mxCell>
        <mxCell id="HI5hFGE2aybFtyvMWJXW-20" value="" style="endArrow=classic;html=1;rounded=0;fillColor=#1ba1e2;strokeColor=#006EAF;" edge="1" parent="1">
          <mxGeometry relative="1" as="geometry">
            <mxPoint x="340" y="800" as="sourcePoint" />
            <mxPoint x="661" y="800" as="targetPoint" />
            <Array as="points" />
          </mxGeometry>
        </mxCell>
        <mxCell id="HI5hFGE2aybFtyvMWJXW-21" value="" style="endArrow=classic;html=1;rounded=0;fillColor=#1ba1e2;strokeColor=#006EAF;" edge="1" parent="1">
          <mxGeometry relative="1" as="geometry">
            <mxPoint x="500" y="710" as="sourcePoint" />
            <mxPoint x="340" y="710" as="targetPoint" />
            <Array as="points">
              <mxPoint x="410" y="710" />
            </Array>
          </mxGeometry>
        </mxCell>
        <mxCell id="HI5hFGE2aybFtyvMWJXW-22" value="" style="endArrow=classic;html=1;rounded=0;fillColor=#fa6800;strokeColor=#C73500;" edge="1" parent="1">
          <mxGeometry relative="1" as="geometry">
            <mxPoint x="344" y="1120" as="sourcePoint" />
            <mxPoint x="185" y="1120" as="targetPoint" />
          </mxGeometry>
        </mxCell>
        <mxCell id="HI5hFGE2aybFtyvMWJXW-23" value="" style="endArrow=classic;html=1;rounded=0;fillColor=#1ba1e2;strokeColor=#006EAF;" edge="1" parent="1">
          <mxGeometry relative="1" as="geometry">
            <mxPoint x="339" y="650" as="sourcePoint" />
            <mxPoint x="500" y="650" as="targetPoint" />
          </mxGeometry>
        </mxCell>
        <mxCell id="HI5hFGE2aybFtyvMWJXW-24" value="" style="endArrow=classic;html=1;rounded=0;fillColor=#1ba1e2;strokeColor=#006EAF;" edge="1" parent="1">
          <mxGeometry relative="1" as="geometry">
            <mxPoint x="659.75" y="890" as="sourcePoint" />
            <mxPoint x="340.25" y="890" as="targetPoint" />
          </mxGeometry>
        </mxCell>
        <mxCell id="HI5hFGE2aybFtyvMWJXW-25" value="" style="endArrow=classic;html=1;rounded=0;fillColor=#d5e8d4;strokeColor=#82b366;" edge="1" parent="1">
          <mxGeometry relative="1" as="geometry">
            <mxPoint x="660" y="440" as="sourcePoint" />
            <mxPoint x="980" y="440" as="targetPoint" />
          </mxGeometry>
        </mxCell>
        <mxCell id="HI5hFGE2aybFtyvMWJXW-26" value="" style="endArrow=classic;html=1;rounded=0;fillColor=#d5e8d4;strokeColor=#82b366;" edge="1" parent="1">
          <mxGeometry relative="1" as="geometry">
            <mxPoint x="979.75" y="560" as="sourcePoint" />
            <mxPoint x="660.25" y="560" as="targetPoint" />
          </mxGeometry>
        </mxCell>
        <mxCell id="HI5hFGE2aybFtyvMWJXW-27" value="&lt;div style=&quot;line-height: 1.17&quot;&gt;Consolidate Schedule Request&lt;/div&gt;" style="text;html=1;align=center;verticalAlign=middle;resizable=0;points=[];autosize=1;strokeColor=none;fillColor=none;" vertex="1" parent="1">
          <mxGeometry x="165" y="215" width="190" height="30" as="geometry" />
        </mxCell>
        <mxCell id="HI5hFGE2aybFtyvMWJXW-30" value="Request" style="text;html=1;align=center;verticalAlign=middle;resizable=0;points=[];autosize=1;strokeColor=none;fillColor=none;" vertex="1" parent="1">
          <mxGeometry x="380" y="630" width="60" height="20" as="geometry" />
        </mxCell>
        <mxCell id="HI5hFGE2aybFtyvMWJXW-31" value="Schedule lists" style="text;html=1;align=center;verticalAlign=middle;resizable=0;points=[];autosize=1;strokeColor=none;fillColor=none;" vertex="1" parent="1">
          <mxGeometry x="360" y="640" width="100" height="30" as="geometry" />
        </mxCell>
        <mxCell id="HI5hFGE2aybFtyvMWJXW-32" value="List of Schedule provided" style="text;html=1;align=center;verticalAlign=middle;resizable=0;points=[];autosize=1;strokeColor=none;fillColor=none;" vertex="1" parent="1">
          <mxGeometry x="340" y="680" width="160" height="30" as="geometry" />
        </mxCell>
        <mxCell id="HI5hFGE2aybFtyvMWJXW-33" value="Request Schedule List" style="text;html=1;align=center;verticalAlign=middle;resizable=0;points=[];autosize=1;strokeColor=none;fillColor=none;" vertex="1" parent="1">
          <mxGeometry x="430" y="770" width="140" height="30" as="geometry" />
        </mxCell>
        <mxCell id="HI5hFGE2aybFtyvMWJXW-35" value="getSchedule Request" style="text;html=1;align=center;verticalAlign=middle;resizable=0;points=[];autosize=1;strokeColor=none;fillColor=none;" vertex="1" parent="1">
          <mxGeometry x="590" y="215" width="140" height="30" as="geometry" />
        </mxCell>
        <mxCell id="HI5hFGE2aybFtyvMWJXW-36" value="getSchedule Response" style="text;html=1;align=center;verticalAlign=middle;resizable=0;points=[];autosize=1;strokeColor=none;fillColor=none;" vertex="1" parent="1">
          <mxGeometry x="585" y="295" width="150" height="30" as="geometry" />
        </mxCell>
        <mxCell id="HI5hFGE2aybFtyvMWJXW-37" value="Fetch Schedule Request" style="text;html=1;align=center;verticalAlign=middle;resizable=0;points=[];autosize=1;strokeColor=none;fillColor=none;" vertex="1" parent="1">
          <mxGeometry x="745" y="415" width="150" height="30" as="geometry" />
        </mxCell>
        <mxCell id="HI5hFGE2aybFtyvMWJXW-38" value="Fetch Schedule Response" style="text;html=1;align=center;verticalAlign=middle;resizable=0;points=[];autosize=1;strokeColor=none;fillColor=none;" vertex="1" parent="1">
          <mxGeometry x="745" y="535" width="160" height="30" as="geometry" />
        </mxCell>
        <mxCell id="HI5hFGE2aybFtyvMWJXW-39" value="" style="curved=1;endArrow=classic;html=1;rounded=0;" edge="1" parent="1">
          <mxGeometry width="50" height="50" relative="1" as="geometry">
            <mxPoint x="350" y="1030" as="sourcePoint" />
            <mxPoint x="350" y="1080" as="targetPoint" />
            <Array as="points">
              <mxPoint x="370" y="1030" />
              <mxPoint x="420" y="1050" />
              <mxPoint x="400" y="1080" />
            </Array>
          </mxGeometry>
        </mxCell>
        <mxCell id="HI5hFGE2aybFtyvMWJXW-41" value="Consolidate Routes Reply" style="text;html=1;align=center;verticalAlign=middle;resizable=0;points=[];autosize=1;strokeColor=none;fillColor=none;" vertex="1" parent="1">
          <mxGeometry x="190" y="1100" width="150" height="20" as="geometry" />
        </mxCell>
        <mxCell id="HI5hFGE2aybFtyvMWJXW-34" value="List of Schedule Provided" style="text;html=1;align=center;verticalAlign=middle;resizable=0;points=[];autosize=1;strokeColor=none;fillColor=none;" vertex="1" parent="1">
          <mxGeometry x="420" y="860" width="160" height="30" as="geometry" />
        </mxCell>
        <mxCell id="HI5hFGE2aybFtyvMWJXW-48" value="" style="endArrow=none;dashed=1;html=1;dashPattern=1 3;strokeWidth=2;rounded=0;startArrow=none;" edge="1" parent="1" source="HI5hFGE2aybFtyvMWJXW-40">
          <mxGeometry width="50" height="50" relative="1" as="geometry">
            <mxPoint x="340" y="1480" as="sourcePoint" />
            <mxPoint x="340.4881889763783" y="820" as="targetPoint" />
            <Array as="points">
              <mxPoint x="340" y="200" />
            </Array>
          </mxGeometry>
        </mxCell>
        <mxCell id="HI5hFGE2aybFtyvMWJXW-42" value="Based on companyCode to determine which system to retrieve the schedules list from.&lt;br&gt;&lt;br&gt;Invoking each transport provider booking system are not dependent to each other.&lt;br&gt;&lt;br&gt;Travel Tip API is still not ready, if companyCode is Travel Tip returns empty list." style="strokeWidth=2;html=1;shape=mxgraph.flowchart.multi-document;whiteSpace=wrap;fillColor=#fff2cc;strokeColor=#d6b656;" vertex="1" parent="1">
          <mxGeometry x="230" y="405" width="220" height="225" as="geometry" />
        </mxCell>
        <mxCell id="HI5hFGE2aybFtyvMWJXW-29" value="No Dependencies to fetch code from each transport providers.&amp;nbsp;" style="strokeWidth=2;html=1;shape=mxgraph.flowchart.multi-document;whiteSpace=wrap;align=center;fillColor=#fff2cc;strokeColor=#d6b656;" vertex="1" parent="1">
          <mxGeometry x="288" y="270" width="104" height="110" as="geometry" />
        </mxCell>
        <mxCell id="HI5hFGE2aybFtyvMWJXW-40" value="Map Transport provider location code for common location (Retrieve mapping from properties file) then apply filter." style="shape=callout;whiteSpace=wrap;html=1;perimeter=calloutPerimeter;align=center;fillColor=#fff2cc;strokeColor=#d6b656;" vertex="1" parent="1">
          <mxGeometry x="245" y="910" width="190" height="120" as="geometry" />
        </mxCell>
        <mxCell id="HI5hFGE2aybFtyvMWJXW-49" value="" style="endArrow=none;dashed=1;html=1;dashPattern=1 3;strokeWidth=2;rounded=0;" edge="1" parent="1" target="HI5hFGE2aybFtyvMWJXW-40">
          <mxGeometry width="50" height="50" relative="1" as="geometry">
            <mxPoint x="340" y="1480" as="sourcePoint" />
            <mxPoint x="340.4881889763783" y="820" as="targetPoint" />
            <Array as="points" />
          </mxGeometry>
        </mxCell>
      </root>
    </mxGraphModel>
  </diagram>
</mxfile>
